<svg width="24" height="24" viewBox="0 0 24 24" fill="none" xmlns="http://www.w3.org/2000/svg">
<g clip-path="url(#clip0_1288_3037)">
<path d="M19.5 12.5719L12 19.9999L4.5 12.5719C4.00531 12.0905 3.61565 11.5119 3.35555 10.8726C3.09546 10.2332 2.97057 9.54688 2.98874 8.85687C3.00692 8.16685 3.16777 7.48807 3.46116 6.86327C3.75456 6.23847 4.17414 5.68119 4.69349 5.22651C5.21284 4.77184 5.82071 4.42962 6.47881 4.22141C7.13692 4.01321 7.83101 3.94352 8.51737 4.01673C9.20373 4.08995 9.8675 4.30449 10.4669 4.64684C11.0663 4.98919 11.5883 5.45193 12 6.00593C12.4135 5.45595 12.9361 4.99725 13.5351 4.65854C14.1341 4.31982 14.7965 4.10838 15.4809 4.03745C16.1654 3.96652 16.8571 4.03763 17.5128 4.24632C18.1685 4.45502 18.774 4.79681 19.2916 5.2503C19.8091 5.70379 20.2274 6.25922 20.5204 6.88182C20.8134 7.50443 20.9747 8.18082 20.9943 8.86864C21.0139 9.55647 20.8913 10.2409 20.6341 10.8792C20.377 11.5174 19.9909 12.0958 19.5 12.5779" stroke="black" stroke-width="2" stroke-linecap="round" stroke-linejoin="round"/>
</g>
<defs>
<clipPath id="clip0_1288_3037">
<rect width="24" height="24" fill="white"/>
</clipPath>
</defs>
</svg>
