<svg width="24" height="24" viewBox="0 0 24 24" fill="none" xmlns="http://www.w3.org/2000/svg">
<circle cx="12" cy="12" r="10" fill="black"/>
<g clip-path="url(#clip0_1457_897)">
<path d="M6 11.392C6.14978 9.92534 6.83566 8.56505 7.92678 7.57062C9.0179 6.57618 10.4379 6.01723 11.9158 6.00039C13.3937 5.98355 14.8261 6.51001 15.9397 7.47933C17.0534 8.44864 17.7702 9.79295 17.9535 11.2558C18.1369 12.7186 17.7738 14.1976 16.9337 15.4105C16.0936 16.6234 14.8352 17.4853 13.3986 17.8319C11.9619 18.1784 10.4477 17.9853 9.14475 17.2893C7.84179 16.5934 6.84131 15.4434 6.33419 14.0586M6 17.392V14.0586H9.34193" fill="black"/>
<path d="M6 11.392C6.14978 9.92534 6.83566 8.56505 7.92678 7.57062C9.0179 6.57618 10.4379 6.01723 11.9158 6.00039C13.3937 5.98355 14.8261 6.51001 15.9397 7.47933C17.0534 8.44864 17.7702 9.79295 17.9535 11.2558C18.1369 12.7186 17.7738 14.1976 16.9337 15.4105C16.0936 16.6234 14.8352 17.4853 13.3986 17.8319C11.9619 18.1784 10.4477 17.9853 9.14475 17.2893C7.84179 16.5934 6.84131 15.4434 6.33419 14.0586M6 17.392V14.0586H9.34193" stroke="white" stroke-width="1.5" stroke-linecap="round" stroke-linejoin="round"/>
<path d="M12 9V12.3333L14 14" stroke="white" stroke-width="1.5" stroke-linecap="round" stroke-linejoin="round"/>
</g>
<defs>
<clipPath id="clip0_1457_897">
<rect width="24" height="24" fill="white"/>
</clipPath>
</defs>
</svg>
