<svg width="86" height="48" viewBox="0 0 86 48" fill="none" xmlns="http://www.w3.org/2000/svg">
<g filter="url(#filter0_i_171_215)">
<g clip-path="url(#clip0_171_215)">
<rect y="4" width="86" height="40" rx="20" fill="#346791"/>
<path d="M36.1693 17.87H37.1913V18.584C37.1913 19.0693 37.098 19.5267 36.9113 19.956C36.7246 20.376 36.468 20.7633 36.1413 21.118C35.824 21.4727 35.4506 21.79 35.0213 22.07C34.592 22.35 34.1253 22.5833 33.6213 22.77C33.1266 22.9567 32.618 23.092 32.0953 23.176L31.6193 22.238C32.086 22.1727 32.5386 22.0607 32.9773 21.902C33.4253 21.7433 33.8406 21.552 34.2233 21.328C34.606 21.0947 34.942 20.8333 35.2313 20.544C35.53 20.2547 35.7586 19.9467 35.9173 19.62C36.0853 19.284 36.1693 18.9387 36.1693 18.584V17.87ZM36.3653 17.87H37.3733V18.584C37.3733 18.9387 37.4573 19.2793 37.6253 19.606C37.7933 19.9327 38.022 20.2407 38.3113 20.53C38.61 20.8193 38.9506 21.0807 39.3333 21.314C39.716 21.5473 40.1266 21.7433 40.5653 21.902C41.0133 22.0607 41.466 22.1727 41.9233 22.238L41.4613 23.176C40.9386 23.092 40.43 22.9567 39.9353 22.77C39.4406 22.574 38.974 22.336 38.5353 22.056C38.106 21.776 37.728 21.4587 37.4013 21.104C37.084 20.7493 36.832 20.362 36.6453 19.942C36.4586 19.5127 36.3653 19.06 36.3653 18.584V17.87ZM36.1693 25.276H37.3173V30.092H36.1693V25.276ZM31.0453 24.548H42.4833V25.514H31.0453V24.548ZM52.6902 17.422H53.8522V24.996H52.6902V17.422ZM53.5302 20.698H55.7142V21.664H53.5302V20.698ZM49.1902 18.36H50.4222C50.4222 19.4333 50.1842 20.4087 49.7082 21.286C49.2322 22.1633 48.5509 22.9193 47.6642 23.554C46.7869 24.1887 45.7369 24.6833 44.5142 25.038L44.0382 24.1C45.1116 23.7827 46.0309 23.3673 46.7962 22.854C47.5616 22.3407 48.1496 21.748 48.5602 21.076C48.9802 20.404 49.1902 19.6713 49.1902 18.878V18.36ZM44.5842 18.36H49.8482V19.312H44.5842V18.36ZM49.8762 25.15C50.7162 25.15 51.4442 25.248 52.0602 25.444C52.6762 25.64 53.1522 25.9247 53.4882 26.298C53.8242 26.662 53.9922 27.1007 53.9922 27.614C53.9922 28.118 53.8242 28.552 53.4882 28.916C53.1522 29.28 52.6762 29.56 52.0602 29.756C51.4442 29.9613 50.7162 30.064 49.8762 30.064C49.0456 30.064 48.3176 29.9613 47.6922 29.756C47.0762 29.56 46.5956 29.28 46.2502 28.916C45.9142 28.552 45.7462 28.118 45.7462 27.614C45.7462 27.1007 45.9142 26.662 46.2502 26.298C46.5956 25.9247 47.0762 25.64 47.6922 25.444C48.3176 25.248 49.0456 25.15 49.8762 25.15ZM49.8762 26.074C49.2789 26.074 48.7562 26.1393 48.3082 26.27C47.8602 26.3913 47.5102 26.5687 47.2582 26.802C47.0156 27.026 46.8942 27.2967 46.8942 27.614C46.8942 27.922 47.0156 28.1927 47.2582 28.426C47.5102 28.65 47.8602 28.8273 48.3082 28.958C48.7562 29.0793 49.2789 29.14 49.8762 29.14C50.4922 29.14 51.0196 29.0793 51.4582 28.958C51.8969 28.8273 52.2376 28.65 52.4802 28.426C52.7322 28.1927 52.8582 27.922 52.8582 27.614C52.8582 27.2967 52.7322 27.026 52.4802 26.802C52.2376 26.5687 51.8969 26.3913 51.4582 26.27C51.0196 26.1393 50.4922 26.074 49.8762 26.074ZM62.1411 23.75H63.2891V25.962H62.1411V23.75ZM57.0031 23.344H68.4411V24.296H57.0031V23.344ZM62.7151 25.612C64.0685 25.612 65.1278 25.8033 65.8931 26.186C66.6585 26.5687 67.0411 27.1193 67.0411 27.838C67.0411 28.5473 66.6585 29.0933 65.8931 29.476C65.1278 29.868 64.0685 30.064 62.7151 30.064C61.3618 30.064 60.2978 29.868 59.5231 29.476C58.7578 29.0933 58.3751 28.5473 58.3751 27.838C58.3751 27.1193 58.7578 26.5687 59.5231 26.186C60.2978 25.8033 61.3618 25.612 62.7151 25.612ZM62.7151 26.522C62.0525 26.522 61.4831 26.5733 61.0071 26.676C60.5405 26.7787 60.1811 26.928 59.9291 27.124C59.6771 27.32 59.5511 27.558 59.5511 27.838C59.5511 28.118 59.6771 28.356 59.9291 28.552C60.1811 28.748 60.5405 28.8973 61.0071 29C61.4831 29.112 62.0525 29.168 62.7151 29.168C63.3778 29.168 63.9425 29.112 64.4091 29C64.8851 28.8973 65.2491 28.748 65.5011 28.552C65.7531 28.356 65.8791 28.118 65.8791 27.838C65.8791 27.558 65.7531 27.32 65.5011 27.124C65.2491 26.928 64.8851 26.7787 64.4091 26.676C63.9425 26.5733 63.3778 26.522 62.7151 26.522ZM61.9731 18.472H62.9951V18.85C62.9951 19.2607 62.9065 19.6387 62.7291 19.984C62.5611 20.3293 62.3231 20.6513 62.0151 20.95C61.7071 21.2393 61.3431 21.496 60.9231 21.72C60.5125 21.944 60.0645 22.1307 59.5791 22.28C59.0938 22.42 58.5851 22.5227 58.0531 22.588L57.6331 21.664C58.0905 21.6173 58.5291 21.538 58.9491 21.426C59.3785 21.3047 59.7751 21.16 60.1391 20.992C60.5125 20.8147 60.8345 20.614 61.1051 20.39C61.3758 20.166 61.5858 19.9233 61.7351 19.662C61.8938 19.4007 61.9731 19.13 61.9731 18.85V18.472ZM62.4491 18.472H63.4711V18.85C63.4711 19.1393 63.5458 19.4147 63.6951 19.676C63.8538 19.928 64.0685 20.166 64.3391 20.39C64.6098 20.6047 64.9271 20.8007 65.2911 20.978C65.6645 21.146 66.0611 21.2907 66.4811 21.412C66.9105 21.5333 67.3538 21.6173 67.8111 21.664L67.3911 22.588C66.8591 22.5227 66.3505 22.42 65.8651 22.28C65.3798 22.1307 64.9271 21.944 64.5071 21.72C64.0965 21.496 63.7371 21.2393 63.4291 20.95C63.1211 20.6607 62.8785 20.3387 62.7011 19.984C62.5331 19.6293 62.4491 19.2513 62.4491 18.85V18.472ZM58.0531 18.01H67.4051V18.948H58.0531V18.01Z" fill="white"/>
</g>
</g>
<circle cx="18" cy="24" r="5" fill="#234A69"/>
<defs>
<filter id="filter0_i_171_215" x="0" y="4" width="90" height="44" filterUnits="userSpaceOnUse" color-interpolation-filters="sRGB">
<feFlood flood-opacity="0" result="BackgroundImageFix"/>
<feBlend mode="normal" in="SourceGraphic" in2="BackgroundImageFix" result="shape"/>
<feColorMatrix in="SourceAlpha" type="matrix" values="0 0 0 0 0 0 0 0 0 0 0 0 0 0 0 0 0 0 127 0" result="hardAlpha"/>
<feOffset dx="4" dy="4"/>
<feGaussianBlur stdDeviation="2"/>
<feComposite in2="hardAlpha" operator="arithmetic" k2="-1" k3="1"/>
<feColorMatrix type="matrix" values="0 0 0 0 0 0 0 0 0 0 0 0 0 0 0 0 0 0 0.25 0"/>
<feBlend mode="normal" in2="shape" result="effect1_innerShadow_171_215"/>
</filter>
<clipPath id="clip0_171_215">
<rect y="4" width="86" height="40" rx="20" fill="white"/>
</clipPath>
</defs>
</svg>
