<svg width="90" height="40" viewBox="0 0 90 40" fill="none" xmlns="http://www.w3.org/2000/svg">
<g clip-path="url(#clip0_172_104)">
<rect x="0.5" width="89" height="40" rx="20" fill="#4383B8"/>
<circle cx="21.5" cy="20" r="5" fill="#234A69"/>
<path d="M40.324 13.87H41.346V14.584C41.346 15.0693 41.2527 15.5267 41.066 15.956C40.8793 16.376 40.6227 16.7633 40.296 17.118C39.9787 17.4727 39.6053 17.79 39.176 18.07C38.7467 18.35 38.28 18.5833 37.776 18.77C37.2813 18.9567 36.7727 19.092 36.25 19.176L35.774 18.238C36.2407 18.1727 36.6933 18.0607 37.132 17.902C37.58 17.7433 37.9953 17.552 38.378 17.328C38.7607 17.0947 39.0967 16.8333 39.386 16.544C39.6847 16.2547 39.9133 15.9467 40.072 15.62C40.24 15.284 40.324 14.9387 40.324 14.584V13.87ZM40.52 13.87H41.528V14.584C41.528 14.9387 41.612 15.2793 41.78 15.606C41.948 15.9327 42.1767 16.2407 42.466 16.53C42.7647 16.8193 43.1053 17.0807 43.488 17.314C43.8707 17.5473 44.2813 17.7433 44.72 17.902C45.168 18.0607 45.6207 18.1727 46.078 18.238L45.616 19.176C45.0933 19.092 44.5847 18.9567 44.09 18.77C43.5953 18.574 43.1287 18.336 42.69 18.056C42.2607 17.776 41.8827 17.4587 41.556 17.104C41.2387 16.7493 40.9867 16.362 40.8 15.942C40.6133 15.5127 40.52 15.06 40.52 14.584V13.87ZM40.324 21.276H41.472V26.092H40.324V21.276ZM35.2 20.548H46.638V21.514H35.2V20.548ZM56.8449 13.422H58.0069V20.996H56.8449V13.422ZM57.6849 16.698H59.8689V17.664H57.6849V16.698ZM53.3449 14.36H54.5769C54.5769 15.4333 54.3389 16.4087 53.8629 17.286C53.3869 18.1633 52.7056 18.9193 51.8189 19.554C50.9416 20.1887 49.8916 20.6833 48.6689 21.038L48.1929 20.1C49.2662 19.7827 50.1856 19.3673 50.9509 18.854C51.7162 18.3407 52.3042 17.748 52.7149 17.076C53.1349 16.404 53.3449 15.6713 53.3449 14.878V14.36ZM48.7389 14.36H54.0029V15.312H48.7389V14.36ZM54.0309 21.15C54.8709 21.15 55.5989 21.248 56.2149 21.444C56.8309 21.64 57.3069 21.9247 57.6429 22.298C57.9789 22.662 58.1469 23.1007 58.1469 23.614C58.1469 24.118 57.9789 24.552 57.6429 24.916C57.3069 25.28 56.8309 25.56 56.2149 25.756C55.5989 25.9613 54.8709 26.064 54.0309 26.064C53.2002 26.064 52.4722 25.9613 51.8469 25.756C51.2309 25.56 50.7502 25.28 50.4049 24.916C50.0689 24.552 49.9009 24.118 49.9009 23.614C49.9009 23.1007 50.0689 22.662 50.4049 22.298C50.7502 21.9247 51.2309 21.64 51.8469 21.444C52.4722 21.248 53.2002 21.15 54.0309 21.15ZM54.0309 22.074C53.4336 22.074 52.9109 22.1393 52.4629 22.27C52.0149 22.3913 51.6649 22.5687 51.4129 22.802C51.1702 23.026 51.0489 23.2967 51.0489 23.614C51.0489 23.922 51.1702 24.1927 51.4129 24.426C51.6649 24.65 52.0149 24.8273 52.4629 24.958C52.9109 25.0793 53.4336 25.14 54.0309 25.14C54.6469 25.14 55.1742 25.0793 55.6129 24.958C56.0516 24.8273 56.3922 24.65 56.6349 24.426C56.8869 24.1927 57.0129 23.922 57.0129 23.614C57.0129 23.2967 56.8869 23.026 56.6349 22.802C56.3922 22.5687 56.0516 22.3913 55.6129 22.27C55.1742 22.1393 54.6469 22.074 54.0309 22.074ZM66.2958 19.75H67.4438V21.962H66.2958V19.75ZM61.1578 19.344H72.5958V20.296H61.1578V19.344ZM66.8698 21.612C68.2231 21.612 69.2825 21.8033 70.0478 22.186C70.8131 22.5687 71.1958 23.1193 71.1958 23.838C71.1958 24.5473 70.8131 25.0933 70.0478 25.476C69.2825 25.868 68.2231 26.064 66.8698 26.064C65.5165 26.064 64.4525 25.868 63.6778 25.476C62.9125 25.0933 62.5298 24.5473 62.5298 23.838C62.5298 23.1193 62.9125 22.5687 63.6778 22.186C64.4525 21.8033 65.5165 21.612 66.8698 21.612ZM66.8698 22.522C66.2071 22.522 65.6378 22.5733 65.1618 22.676C64.6951 22.7787 64.3358 22.928 64.0838 23.124C63.8318 23.32 63.7058 23.558 63.7058 23.838C63.7058 24.118 63.8318 24.356 64.0838 24.552C64.3358 24.748 64.6951 24.8973 65.1618 25C65.6378 25.112 66.2071 25.168 66.8698 25.168C67.5325 25.168 68.0971 25.112 68.5638 25C69.0398 24.8973 69.4038 24.748 69.6558 24.552C69.9078 24.356 70.0338 24.118 70.0338 23.838C70.0338 23.558 69.9078 23.32 69.6558 23.124C69.4038 22.928 69.0398 22.7787 68.5638 22.676C68.0971 22.5733 67.5325 22.522 66.8698 22.522ZM66.1278 14.472H67.1498V14.85C67.1498 15.2607 67.0611 15.6387 66.8838 15.984C66.7158 16.3293 66.4778 16.6513 66.1698 16.95C65.8618 17.2393 65.4978 17.496 65.0778 17.72C64.6671 17.944 64.2191 18.1307 63.7338 18.28C63.2485 18.42 62.7398 18.5227 62.2078 18.588L61.7878 17.664C62.2451 17.6173 62.6838 17.538 63.1038 17.426C63.5331 17.3047 63.9298 17.16 64.2938 16.992C64.6671 16.8147 64.9891 16.614 65.2598 16.39C65.5305 16.166 65.7405 15.9233 65.8898 15.662C66.0485 15.4007 66.1278 15.13 66.1278 14.85V14.472ZM66.6038 14.472H67.6258V14.85C67.6258 15.1393 67.7005 15.4147 67.8498 15.676C68.0085 15.928 68.2231 16.166 68.4938 16.39C68.7645 16.6047 69.0818 16.8007 69.4458 16.978C69.8191 17.146 70.2158 17.2907 70.6358 17.412C71.0651 17.5333 71.5085 17.6173 71.9658 17.664L71.5458 18.588C71.0138 18.5227 70.5051 18.42 70.0198 18.28C69.5345 18.1307 69.0818 17.944 68.6618 17.72C68.2511 17.496 67.8918 17.2393 67.5838 16.95C67.2758 16.6607 67.0331 16.3387 66.8558 15.984C66.6878 15.6293 66.6038 15.2513 66.6038 14.85V14.472ZM62.2078 14.01H71.5598V14.948H62.2078V14.01Z" fill="white"/>
</g>
<defs>
<clipPath id="clip0_172_104">
<rect x="0.5" width="89" height="40" rx="20" fill="white"/>
</clipPath>
</defs>
</svg>
