<svg width="22" height="22" viewBox="0 0 22 22" fill="none" xmlns="http://www.w3.org/2000/svg">
<g clip-path="url(#clip0_434_1307)">
<path d="M11 5.5C10.7569 5.5 10.5238 5.59658 10.3519 5.76849C10.1799 5.94039 10.0834 6.17355 10.0834 6.41667V11C10.0834 11.2431 10.18 11.4762 10.352 11.6481L13.102 14.3981C13.2748 14.5651 13.5064 14.6575 13.7467 14.6554C13.9871 14.6533 14.217 14.5569 14.387 14.3869C14.5569 14.217 14.6533 13.987 14.6554 13.7467C14.6575 13.5064 14.5651 13.2748 14.3981 13.1019L11.9167 10.6205V6.41667C11.9167 6.17355 11.8201 5.94039 11.6482 5.76849C11.4763 5.59658 11.2432 5.5 11 5.5ZM21.8277 9.28767C21.513 7.29468 20.6563 5.42664 19.3512 3.88792C18.0461 2.34919 16.3429 1.19907 14.428 0.563383C12.513 -0.0723035 10.4602 -0.169063 8.49396 0.283692C6.52774 0.736446 4.72393 1.72127 3.27987 3.13042V0.916667C3.27987 0.673551 3.1833 0.440394 3.01139 0.268485C2.83948 0.0965771 2.60632 0 2.36321 0C2.12009 0 1.88693 0.0965771 1.71502 0.268485C1.54312 0.440394 1.44654 0.673551 1.44654 0.916667V4.58333C1.44654 5.06956 1.63969 5.53588 1.98351 5.8797C2.32733 6.22351 2.79364 6.41667 3.27987 6.41667H6.94654C7.18965 6.41667 7.42281 6.32009 7.59472 6.14818C7.76663 5.97627 7.8632 5.74311 7.8632 5.5C7.8632 5.25688 7.76663 5.02373 7.59472 4.85182C7.42281 4.67991 7.18965 4.58333 6.94654 4.58333H4.42479C5.88962 3.09616 7.81858 2.15408 9.89208 1.91317C11.9656 1.67226 14.0591 2.14698 15.8259 3.25869C17.5927 4.3704 18.9267 6.05236 19.6068 8.0259C20.2869 9.99945 20.2723 12.1461 19.5655 14.1103C18.8587 16.0744 17.502 17.7381 15.7203 18.8257C13.9386 19.9134 11.8388 20.3596 9.76875 20.0906C7.69871 19.8216 5.78271 18.8534 4.33819 17.3465C2.89367 15.8396 2.00734 13.8844 1.82604 11.8048C1.80227 11.5814 1.69579 11.3749 1.52753 11.226C1.35926 11.0771 1.14138 10.9965 0.916706 11C0.788506 11.0003 0.661783 11.0274 0.544611 11.0794C0.427439 11.1314 0.322388 11.2073 0.236151 11.3021C0.149914 11.397 0.0843817 11.5088 0.0437302 11.6304C0.0030786 11.752 -0.0118011 11.8807 3.91407e-05 12.0083C0.144997 13.469 0.580818 14.8858 1.28183 16.1754C1.98284 17.465 2.93485 18.6013 4.08179 19.5173C5.22873 20.4333 6.54739 21.1105 7.96009 21.5089C9.37279 21.9074 10.851 22.0191 12.3075 21.8375C13.764 21.6558 15.1695 21.1845 16.441 20.4513C17.7126 19.7181 18.8246 18.7378 19.7114 17.5682C20.5983 16.3986 21.2421 15.0633 21.6049 13.641C21.9677 12.2188 22.0422 10.7383 21.824 9.28675L21.8277 9.28767Z" fill="black"/>
</g>
<defs>
<clipPath id="clip0_434_1307">
<rect width="22" height="22" fill="white"/>
</clipPath>
</defs>
</svg>
