<svg width="24" height="24" viewBox="0 0 24 24" fill="none" xmlns="http://www.w3.org/2000/svg">
<g clip-path="url(#clip0_1288_3138)">
<path d="M20.955 11.1041C20.7855 9.41072 20.1395 7.80014 19.0917 6.45913C18.0439 5.11813 16.6375 4.10167 15.0354 3.52766C13.4333 2.95365 11.7014 2.84563 10.0404 3.21611C8.37943 3.5866 6.85753 4.42041 5.65127 5.62083C4.445 6.82125 3.60379 8.33907 3.22523 9.99822C2.84667 11.6574 2.94628 13.3898 3.51249 14.9947C4.0787 16.5995 5.08831 18.0109 6.4242 19.0652C7.76009 20.1195 9.36752 20.7734 11.06 20.951" fill="black"/>
<path d="M20.955 11.1041C20.7855 9.41072 20.1395 7.80014 19.0917 6.45913C18.0439 5.11813 16.6375 4.10167 15.0354 3.52766C13.4333 2.95365 11.7014 2.84563 10.0404 3.21611C8.37943 3.5866 6.85753 4.42041 5.65127 5.62083C4.445 6.82125 3.60379 8.33907 3.22523 9.99822C2.84667 11.6574 2.94628 13.3898 3.51249 14.9947C4.0787 16.5995 5.08831 18.0109 6.4242 19.0652C7.76009 20.1195 9.36752 20.7734 11.06 20.951" stroke="black" stroke-width="2" stroke-linecap="round" stroke-linejoin="round"/>
<path d="M9 10H9.01" stroke="white" stroke-width="2" stroke-linecap="round" stroke-linejoin="round"/>
<path d="M15 10H15.01" stroke="white" stroke-width="2" stroke-linecap="round" stroke-linejoin="round"/>
<path d="M9.5 15C10.158 15.672 11.06 16 12 16C12.126 16 12.251 15.994 12.376 15.982" stroke="white" stroke-width="2" stroke-linecap="round" stroke-linejoin="round"/>
<path d="M18.42 15.61C18.615 15.415 18.8465 15.2603 19.1013 15.1547C19.3561 15.0492 19.6292 14.9949 19.905 14.9949C20.1808 14.9949 20.4539 15.0492 20.7087 15.1547C20.9635 15.2603 21.195 15.415 21.39 15.61C21.585 15.805 21.7397 16.0365 21.8452 16.2913C21.9508 16.5461 22.0051 16.8192 22.0051 17.095C22.0051 17.3708 21.9508 17.6439 21.8452 17.8987C21.7397 18.1535 21.585 18.385 21.39 18.58L18 22H15V19L18.42 15.61Z" fill="black" stroke="black" stroke-width="2" stroke-linecap="round" stroke-linejoin="round"/>
</g>
<defs>
<clipPath id="clip0_1288_3138">
<rect width="24" height="24" fill="white"/>
</clipPath>
</defs>
</svg>
